{
  "accessors": [
    {
      "bufferView": 0,
      "componentType": 5125,
      "count": 46350,
      "type": "SCALAR"
    },
    {
      "bufferView": 1,
      "componentType": 5126,
      "count": 8899,
      "max": [
        0.06707538490408732,
        0.058904969826806264,
        0.018143505997277
      ],
      "min": [
        -0.033168324437785945,
        0.0006904249814195795,
        -0.018143505997277
      ],
      "type": "VEC3"
    },
    {
      "bufferView": 2,
      "componentType": 5126,
      "count": 8899,
      "max": [
        0.9994470819107548,
        0.9999999999983449,
        0.9999428971870893
      ],
      "min": [
        -0.9995341193866685,
        -0.9994471829376975,
        -0.9999428971870893
      ],
      "type": "VEC3"
    },
    {
      "bufferView": 3,
      "componentType": 5126,
      "count": 8899,
      "max": [
        0.8100176449510696,
        1.0
      ],
      "min": [
        0.0,
        0.0
      ],
      "type": "VEC2"
    },
    {
      "bufferView": 4,
      "componentType": 5125,
      "count": 45270,
      "type": "SCALAR"
    },
    {
      "bufferView": 5,
      "componentType": 5126,
      "count": 8719,
      "max": [
        0.06707538918045525,
        -0.0006904756893992281,
        0.018147492861761465
      ],
      "min": [
        -0.03316838927099347,
        -0.05890496982680629,
        -0.018147492861761465
      ],
      "type": "VEC3"
    },
    {
      "bufferView": 6,
      "componentType": 5126,
      "count": 8719,
      "max": [
        0.9994475755818264,
        0.9994443549899378,
        0.9999651607284085
      ],
      "min": [
        -0.9995341676668457,
        -0.9999999999962278,
        -0.9999651607284085
      ],
      "type": "VEC3"
    },
    {
      "bufferView": 7,
      "componentType": 5126,
      "count": 8719,
      "max": [
        0.8100179631333817,
        1.0
      ],
      "min": [
        0.0,
        0.0
      ],
      "type": "VEC2"
    },
    {
      "bufferView": 8,
      "componentType": 5125,
      "count": 46290,
      "type": "SCALAR"
    },
    {
      "bufferView": 9,
      "componentType": 5126,
      "count": 8889,
      "max": [
        -0.03426072611326936,
        0.05781313711243799,
        0.018150754482559917
      ],
      "min": [
        -0.0670753891804553,
        -0.05781321502202616,
        -0.01815075448255992
      ],
      "type": "VEC3"
    },
    {
      "bufferView": 10,
      "componentType": 5126,
      "count": 8889,
      "max": [
        0.9999999999997451,
        0.9995340434750695,
        0.9999844046149765
      ],
      "min": [
        -0.9999999999999384,
        -0.9995341515052591,
        -0.9999844046149765
      ],
      "type": "VEC3"
    },
    {
      "bufferView": 11,
      "componentType": 5126,
      "count": 8889,
      "max": [
        1.0,
        0.7622477994903848
      ],
      "min": [
        0.0,
        0.0
      ],
      "type": "VEC2"
    }
  ],
  "asset": {
    "generator": "Adobe Illustrator",
    "version": "2.0"
  },
  "bufferViews": [
    {
      "buffer": 0,
      "byteLength": 185400,
      "target": 34963
    },
    {
      "buffer": 0,
      "byteLength": 106788,
      "byteOffset": 185400,
      "target": 34962
    },
    {
      "buffer": 0,
      "byteLength": 106788,
      "byteOffset": 292188,
      "target": 34962
    },
    {
      "buffer": 0,
      "byteLength": 71192,
      "byteOffset": 398976,
      "target": 34962
    },
    {
      "buffer": 0,
      "byteLength": 181080,
      "byteOffset": 470168,
      "target": 34963
    },
    {
      "buffer": 0,
      "byteLength": 104628,
      "byteOffset": 651248,
      "target": 34962
    },
    {
      "buffer": 0,
      "byteLength": 104628,
      "byteOffset": 755876,
      "target": 34962
    },
    {
      "buffer": 0,
      "byteLength": 69752,
      "byteOffset": 860504,
      "target": 34962
    },
    {
      "buffer": 0,
      "byteLength": 185160,
      "byteOffset": 930256,
      "target": 34963
    },
    {
      "buffer": 0,
      "byteLength": 106668,
      "byteOffset": 1115416,
      "target": 34962
    },
    {
      "buffer": 0,
      "byteLength": 106668,
      "byteOffset": 1222084,
      "target": 34962
    },
    {
      "buffer": 0,
      "byteLength": 71112,
      "byteOffset": 1328752,
      "target": 34962
    }
  ],
  "buffers": [
    {
      "byteLength": 1399864,
      "uri": "data:application/octet-stream;base64,"
    }
  ],
  "materials": [
    {
      "doubleSided": true,
      "pbrMetallicRoughness": {
        "baseColorFactor": [
          0.0,
          0.0,
          0.0,
          1.0
        ],
        "metallicFactor": 0.0,
        "roughnessFactor": 0.4000000059604645
      }
    },
    {
      "doubleSided": true,
      "pbrMetallicRoughness": {
        "baseColorFactor": [
          0.0,
          0.0,
          0.0,
          1.0
        ],
        "metallicFactor": 0.0,
        "roughnessFactor": 0.4000000059604645
      }
    },
    {
      "doubleSided": true,
      "pbrMetallicRoughness": {
        "baseColorFactor": [
          0.0,
          0.0,
          0.0,
          1.0
        ],
        "metallicFactor": 0.0,
        "roughnessFactor": 0.4000000059604645
      }
    }
  ],
  "meshes": [
    {
      "primitives": [
        {
          "attributes": {
            "NORMAL": 2,
            "POSITION": 1,
            "TEXCOORD_0": 3
          },
          "indices": 0,
          "material": 0,
          "mode": 4
        }
      ]
    },
    {
      "primitives": [
        {
          "attributes": {
            "NORMAL": 6,
            "POSITION": 5,
            "TEXCOORD_0": 7
          },
          "indices": 4,
          "material": 1,
          "mode": 4
        }
      ]
    },
    {
      "primitives": [
        {
          "attributes": {
            "NORMAL": 10,
            "POSITION": 9,
            "TEXCOORD_0": 11
          },
          "indices": 8,
          "material": 2,
          "mode": 4
        }
      ]
    }
  ],
  "nodes": [
    {
      "mesh": 0
    },
    {
      "mesh": 1
    },
    {
      "mesh": 2
    }
  ],
  "scenes": [
    {
      "nodes": [
        0,
        1,
        2
      ]
    }
  ]
}
